<svg width="1440" height="1024" viewBox="0 0 1440 1024" fill="none" xmlns="http://www.w3.org/2000/svg">
<g clip-path="url(#clip0_225_308)">
<path d="M124.961 927.353C207.94 977.32 196.461 1024 196.461 1024H0V762C0 762 41.9816 877.385 124.961 927.353Z" fill="url(#paint0_linear_225_308)"/>
<path d="M169.998 893.046C282.883 960.75 267.267 1024 267.267 1024H0V669C0 669 57.1121 825.343 169.998 893.046Z" fill="url(#paint1_linear_225_308)" fill-opacity="0.53"/>
<path d="M1314.4 96.6474C1231 46.68 1242.54 0 1242.54 0L1440 0V262C1440 262 1397.81 146.615 1314.4 96.6474Z" fill="url(#paint2_linear_225_308)"/>
<path d="M1272.54 129.478C1161.34 62.537 1176.72 0 1176.72 0L1440 0V351C1440 351 1383.74 196.419 1272.54 129.478Z" fill="url(#paint3_linear_225_308)" fill-opacity="0.59"/>
</g>
<defs>
<linearGradient id="paint0_linear_225_308" x1="98.5" y1="762" x2="-122.211" y2="894.485" gradientUnits="userSpaceOnUse">
<stop stop-color="#629967"/>
<stop offset="1" stop-color="#122E31"/>
</linearGradient>
<linearGradient id="paint1_linear_225_308" x1="134" y1="669" x2="-165.618" y2="849.572" gradientUnits="userSpaceOnUse">
<stop stop-color="#4D7651"/>
<stop offset="1" stop-color="#122E31"/>
</linearGradient>
<linearGradient id="paint2_linear_225_308" x1="1341" y1="262" x2="1562.24" y2="128.526" gradientUnits="userSpaceOnUse">
<stop stop-color="#629967"/>
<stop offset="1" stop-color="#122E31"/>
</linearGradient>
<linearGradient id="paint3_linear_225_308" x1="1308" y1="351" x2="1603.73" y2="173.431" gradientUnits="userSpaceOnUse">
<stop stop-color="#4D7651"/>
<stop offset="1" stop-color="#122E31"/>
</linearGradient>
<clipPath id="clip0_225_308">
<rect width="1440" height="1024" fill="white"/>
</clipPath>
</defs>
</svg>
