<svg width="1280" height="700" viewBox="0 0 1280 700" fill="none" xmlns="http://www.w3.org/2000/svg">
<g clip-path="url(#clip0_199_1657)">
<path d="M142.114 536.792C117.057 606.216 84.5145 675.307 38.3189 727.007C-7.78613 778.605 -67.4499 812.852 -147.055 812.852C-306.806 812.852 -436.027 689.609 -436.027 537.922C-436.027 386.234 -306.806 262.992 -147.055 262.992C-67.2039 262.992 17.6548 297.441 76.2619 349.115C134.904 400.821 166.569 469.036 142.114 536.792Z" stroke="#114A50" stroke-opacity="0.08" stroke-width="6.6569"/>
<path d="M64.5714 540.252C64.5714 632.2 -13.6614 707.007 -110.505 707.007C-207.349 707.007 -285.582 632.2 -285.582 540.252C-285.582 448.303 -207.349 373.496 -110.505 373.496C-13.6614 373.496 64.5714 448.303 64.5714 540.252Z" stroke="#114A50" stroke-opacity="0.08" stroke-width="6.6569"/>
<path d="M1458.46 729.85C1458.46 821.799 1380.22 896.606 1283.38 896.606C1186.53 896.606 1108.3 821.799 1108.3 729.85C1108.3 637.902 1186.53 563.095 1283.38 563.095C1380.22 563.095 1458.46 637.902 1458.46 729.85Z" stroke="#114A50" stroke-opacity="0.08" stroke-width="6.6569"/>
<path d="M1536 726.391C1510.94 795.815 1478.4 864.906 1432.2 916.606C1386.1 968.204 1326.43 1002.45 1246.83 1002.45C1087.08 1002.45 957.857 879.208 957.857 727.521C957.857 575.833 1087.08 452.59 1246.83 452.59C1326.68 452.59 1411.54 487.04 1470.15 538.714C1528.79 590.42 1560.45 658.635 1536 726.391Z" stroke="#114A50" stroke-opacity="0.08" stroke-width="6.6569"/>
</g>
<defs>
<clipPath id="clip0_199_1657">
<rect width="1280" height="700" fill="white"/>
</clipPath>
</defs>
</svg>
