<svg width="75" height="75" viewBox="0 0 75 75" fill="none" xmlns="http://www.w3.org/2000/svg">
<circle cx="37.5" cy="37.5" r="34" fill="url(#paint0_linear_37_180)" stroke="#EAEAEA" stroke-width="7"/>
<path d="M51.7616 49.7098L45.6636 44.0346C47.775 41.7934 48.8658 38.8779 48.7055 35.9038C48.5451 32.9297 47.1463 30.1299 44.8044 28.0957C42.4625 26.0614 39.3608 24.952 36.1544 25.0016C32.948 25.0512 29.8879 26.2561 27.6203 28.3617C25.3527 30.4673 24.0552 33.3089 24.0017 36.2862C23.9483 39.2636 25.1431 42.1437 27.3338 44.3184C29.5245 46.493 32.5397 47.7919 35.7425 47.9408C38.9454 48.0897 42.0852 47.0768 44.4988 45.1162L50.6105 50.7786C50.7632 50.9204 50.9702 51 51.1861 51C51.4019 51 51.609 50.9204 51.7616 50.7786C51.9142 50.6369 52 50.4446 52 50.2442C52 50.0437 51.9142 49.8515 51.7616 49.7098ZM25.6978 36.5017C25.6978 34.5386 26.3246 32.6197 27.4991 30.9875C28.6736 29.3553 30.3429 28.0832 32.296 27.332C34.2491 26.5808 36.3983 26.3842 38.4716 26.7672C40.545 27.1502 42.4496 28.0954 43.9444 29.4835C45.4392 30.8716 46.4572 32.6401 46.8697 34.5653C47.2821 36.4906 47.0704 38.4863 46.2614 40.2999C45.4524 42.1134 44.0824 43.6635 42.3247 44.7541C40.567 45.8447 38.5004 46.4268 36.3864 46.4268C33.5527 46.4235 30.8361 45.3767 28.8324 43.5161C26.8287 41.6555 25.7014 39.1329 25.6978 36.5017Z" fill="white"/>
<defs>
<linearGradient id="paint0_linear_37_180" x1="37.5" y1="7" x2="28.4559" y2="150.02" gradientUnits="userSpaceOnUse">
<stop stop-color="#629967"/>
<stop offset="0.916667" stop-color="#122E31"/>
</linearGradient>
</defs>
</svg>
