<svg width="69" height="69" viewBox="0 0 69 69" fill="none" xmlns="http://www.w3.org/2000/svg">
<circle cx="34.5" cy="34.5" r="30.5" fill="url(#paint0_linear_49_283)" stroke="#EDEDED" stroke-width="7"/>
<path d="M46.9 36.4V40.6L41.8 36.4H31.6C30.6983 36.4 29.8335 36.105 29.1958 35.5799C28.5582 35.0548 28.2 34.3426 28.2 33.6V23.8C28.2 22.26 29.73 21 31.6 21H48.6C49.5017 21 50.3665 21.295 51.0042 21.8201C51.6418 22.3452 52 23.0574 52 23.8V33.6C52 34.3426 51.6418 35.0548 51.0042 35.5799C50.3665 36.105 49.5017 36.4 48.6 36.4H46.9ZM41.8 39.2V42C41.8 42.7426 41.4418 43.4548 40.8042 43.9799C40.1665 44.505 39.3017 44.8 38.4 44.8H28.2L23.1 49V44.8H21.4C20.4983 44.8 19.6335 44.505 18.9958 43.9799C18.3582 43.4548 18 42.7426 18 42V32.2C18 30.66 19.53 29.4 21.4 29.4H24.8V33.6C24.8 35.0852 25.5164 36.5096 26.7917 37.5598C28.0669 38.61 29.7965 39.2 31.6 39.2H41.8Z" fill="white"/>
<defs>
<linearGradient id="paint0_linear_49_283" x1="34.5" y1="4" x2="25.4559" y2="147.02" gradientUnits="userSpaceOnUse">
<stop stop-color="#629967"/>
<stop offset="1" stop-color="#487656"/>
</linearGradient>
</defs>
</svg>
